<svg xmlns="http://www.w3.org/2000/svg" width="1280" height="760" viewBox="0 0 1280 760">
<rect width="100%" height="100%" fill="#ffffff"/>
<text x="118" y="48" font-family="Arial,sans-serif" font-size="27" font-weight="700" fill="#17313d">Путь TCP с фазами цикла сортировки</text>
<line x1="118" y1="635.00" x2="1215" y2="635.00" stroke="#dce5e8" stroke-width="1"/>
<text x="106" y="641.00" text-anchor="end" font-family="Arial,sans-serif" font-size="16" fill="#506672">-0.4439</text>
<line x1="118" y1="526.40" x2="1215" y2="526.40" stroke="#dce5e8" stroke-width="1"/>
<text x="106" y="532.40" text-anchor="end" font-family="Arial,sans-serif" font-size="16" fill="#506672">-0.2664</text>
<line x1="118" y1="417.80" x2="1215" y2="417.80" stroke="#dce5e8" stroke-width="1"/>
<text x="106" y="423.80" text-anchor="end" font-family="Arial,sans-serif" font-size="16" fill="#506672">-0.08878</text>
<line x1="118" y1="309.20" x2="1215" y2="309.20" stroke="#dce5e8" stroke-width="1"/>
<text x="106" y="315.20" text-anchor="end" font-family="Arial,sans-serif" font-size="16" fill="#506672">0.08879</text>
<line x1="118" y1="200.60" x2="1215" y2="200.60" stroke="#dce5e8" stroke-width="1"/>
<text x="106" y="206.60" text-anchor="end" font-family="Arial,sans-serif" font-size="16" fill="#506672">0.2664</text>
<line x1="118" y1="92.00" x2="1215" y2="92.00" stroke="#dce5e8" stroke-width="1"/>
<text x="106" y="98.00" text-anchor="end" font-family="Arial,sans-serif" font-size="16" fill="#506672">0.4439</text>
<line x1="118.00" y1="92" x2="118.00" y2="635" stroke="#edf1f2" stroke-width="1"/>
<text x="118.00" y="663" text-anchor="middle" font-family="Arial,sans-serif" font-size="16" fill="#506672">-0.4132</text>
<line x1="337.40" y1="92" x2="337.40" y2="635" stroke="#edf1f2" stroke-width="1"/>
<text x="337.40" y="663" text-anchor="middle" font-family="Arial,sans-serif" font-size="16" fill="#506672">-0.2478</text>
<line x1="556.80" y1="92" x2="556.80" y2="635" stroke="#edf1f2" stroke-width="1"/>
<text x="556.80" y="663" text-anchor="middle" font-family="Arial,sans-serif" font-size="16" fill="#506672">-0.08252</text>
<line x1="776.20" y1="92" x2="776.20" y2="635" stroke="#edf1f2" stroke-width="1"/>
<text x="776.20" y="663" text-anchor="middle" font-family="Arial,sans-serif" font-size="16" fill="#506672">0.08281</text>
<line x1="995.60" y1="92" x2="995.60" y2="635" stroke="#edf1f2" stroke-width="1"/>
<text x="995.60" y="663" text-anchor="middle" font-family="Arial,sans-serif" font-size="16" fill="#506672">0.2481</text>
<line x1="1215.00" y1="92" x2="1215.00" y2="635" stroke="#edf1f2" stroke-width="1"/>
<text x="1215.00" y="663" text-anchor="middle" font-family="Arial,sans-serif" font-size="16" fill="#506672">0.4135</text>
<polyline points="172.11,354.33 172.11,354.33 172.11,354.33 172.11,354.33 172.11,354.33 172.11,354.33 172.11,354.33 172.11,354.33 172.11,354.33 172.11,354.33 172.11,354.33 172.11,354.33 172.11,354.33 172.11,354.33 172.11,354.33 172.10,354.33 172.10,354.33 172.06,354.33 172.06,354.33 171.98,354.32 171.98,354.32 171.85,354.32 171.85,354.32 171.65,354.32 171.65,354.32 171.36,354.31 171.36,354.31 170.98,354.31 170.98,354.31 170.49,354.30 170.49,354.30 169.89,354.29 169.88,354.29 169.16,354.27 169.15,354.27 168.30,354.26 168.29,354.26 167.30,354.24 167.28,354.24 166.15,354.22 166.13,354.22 164.82,354.19 164.80,354.19 162.98,354.16 162.96,354.16 160.92,354.12 160.89,354.12 159.25,354.09 159.24,354.09 158.89,353.80 158.90,353.78 159.46,350.44 159.47,350.37 160.45,345.23 160.46,345.16 161.19,340.83 161.20,340.77 161.98,336.15 161.99,336.09 163.38,331.21 163.41,331.14 165.48,325.86 165.51,325.78 167.51,320.26 167.54,320.19 169.80,314.26 169.84,314.18 173.22,308.05 173.27,307.96 177.01,301.44 177.06,301.35 181.00,294.51 181.07,294.41 186.41,287.45 186.49,287.35 192.03,280.10 192.11,279.99 198.50,272.51 198.60,272.41 206.32,264.78 206.42,264.67 214.32,256.76 214.45,256.65 224.36,248.62 224.50,248.51 234.47,240.33 234.61,240.22 246.53,232.13 246.70,232.01 258.98,223.72 259.16,223.61 273.43,215.52 273.63,215.41 288.34,207.17 288.56,207.06 305.11,199.27 305.34,199.16 322.67,191.19 322.93,191.09 342.11,183.53 342.37,183.43 362.63,176.06 362.92,175.97 384.34,168.87 384.64,168.77 407.46,162.38 407.78,162.30 431.63,155.98 431.97,155.91 457.31,150.27 457.66,150.20 484.25,145.23 484.62,145.17 511.54,140.61 511.93,140.56 540.45,136.83 540.84,136.78 570.33,133.89 570.45,133.88 600.35,131.50 600.77,131.48 631.54,130.02 631.96,130.00 662.91,129.64 663.34,129.63 675.84,129.51 695.02,130.00 695.45,130.01 726.89,131.13 727.33,131.16 759.32,133.47 759.75,133.50 791.16,136.84 791.60,136.89 823.20,141.07 823.63,141.14 854.41,146.11 854.83,146.19 885.37,152.39 885.79,152.48 915.42,159.75 915.83,159.85 944.56,167.94 944.95,168.06 972.32,176.79 972.69,176.92 999.11,186.71 999.46,186.84 1023.87,197.46 1024.21,197.60 1047.06,208.94 1047.37,209.10 1069.08,221.16 1069.36,221.34 1089.07,233.82 1089.32,234.00 1107.12,247.35 1107.36,247.54 1122.72,261.26 1122.93,261.45 1136.62,275.70 1136.78,275.90 1148.49,290.20 1148.62,290.40 1158.17,305.22 1158.29,305.42 1165.15,320.28 1165.24,320.48 1170.08,335.61 1170.14,335.82 1173.21,350.69 1173.22,350.90 1174.15,365.93 1174.15,366.14 1172.50,380.86 1172.48,381.06 1168.86,395.76 1168.80,395.96 1163.83,410.17 1163.73,410.36 1156.62,424.44 1156.52,424.63 1147.27,438.08 1147.15,438.26 1136.58,451.47 1136.41,451.65 1124.75,464.22 1124.57,464.39 1110.69,476.51 1110.50,476.68 1095.57,488.25 1095.35,488.40 1079.95,499.30 1079.72,499.45 1062.41,509.73 1062.18,509.87 1044.33,519.58 1044.07,519.71 1025.73,528.85 1025.47,528.97 1006.18,537.13 1005.92,537.24 986.56,545.11 986.28,545.20 966.13,552.25 965.86,552.35 945.63,558.81 945.35,558.89 925.15,564.81 924.87,564.89 904.09,570.10 903.81,570.17 883.82,574.98 883.55,575.04 863.33,579.00 863.05,579.06 843.55,582.81 843.28,582.86 823.76,585.82 823.50,585.86 804.73,588.63 804.47,588.67 786.01,590.83 785.76,590.86 767.90,592.67 767.66,592.70 750.51,594.29 750.27,594.31 733.31,595.29 733.09,595.30 717.28,596.33 717.07,596.34 701.83,596.89 701.63,596.90 687.08,597.14 686.89,597.15 673.02,597.50 672.84,597.50 667.07,597.55 659.84,597.47 659.66,597.47 647.21,597.17 647.04,597.17 635.59,597.00 635.44,597.00 624.59,596.76 624.44,596.75 614.45,596.25 614.32,596.24 604.92,595.63 604.80,595.62 596.29,595.13 596.18,595.12 588.25,594.70 588.15,594.69 580.92,594.22 580.83,594.21 574.37,593.65 574.29,593.64 568.39,593.04 568.31,593.03 563.05,592.47 562.99,592.46 558.39,591.98 558.33,591.98 554.25,591.58 554.19,591.57 550.65,591.23 550.60,591.22 547.57,590.93 547.53,590.92 544.97,590.67 544.94,590.67 542.83,590.46 542.80,590.45 541.10,590.28 541.08,590.28 539.75,590.14 539.73,590.14 538.73,590.03 538.72,590.03 538.00,589.95 537.99,589.95 537.52,589.90 537.52,589.90 537.24,589.87 537.24,589.87 537.10,589.85 537.10,589.85 537.06,589.85 537.06,589.85 537.07,589.83 537.07,589.83 537.68,588.76 537.70,588.73 539.93,584.81 539.98,584.74 544.05,577.61 544.12,577.49 549.76,567.60 549.85,567.45 556.13,556.44 556.22,556.29 561.77,546.58 561.83,546.46 565.45,540.14 565.48,540.08 566.72,537.90 566.73,537.89 566.78,537.80 566.78,537.80 566.78,537.80 566.78,537.80 566.78,537.80 566.78,537.80 566.78,537.80 566.78,537.80 566.78,537.80 566.78,537.80 566.78,537.80 566.78,537.80 566.78,537.80 566.78,537.80 566.78,537.80 566.78,537.80 566.78,537.80 566.78,537.80 566.78,537.80 566.78,537.80 566.78,537.80 566.78,537.80 566.78,537.80 566.78,537.80 566.78,537.80 566.78,537.80 566.78,537.80 566.78,537.80 566.78,537.80 566.78,537.80 566.78,537.80 566.78,537.80 566.78,537.80 566.78,537.80 566.78,537.80 566.78,537.80 566.78,537.80 566.78,537.80 566.78,537.80 566.78,537.80 566.78,537.80 566.78,537.80 566.78,537.80 566.77,537.81 566.77,537.81 566.75,537.86 566.75,537.86 566.68,537.97 566.68,537.97 566.57,538.17 566.57,538.17 566.39,538.49 566.39,538.49 566.13,538.94 566.13,538.95 565.78,539.55 565.78,539.56 565.33,540.34 565.32,540.35 564.77,541.32 564.76,541.33 564.10,542.47 564.08,542.49 562.24,544.08 562.21,544.10 560.25,545.89 560.24,545.91 562.75,546.98 562.84,546.99 571.86,547.90 572.00,547.92 582.62,548.97 582.77,548.98 594.08,550.14 594.24,550.15 606.59,550.98 606.76,550.99 620.27,551.77 620.46,551.78 635.15,552.54 635.36,552.54 651.17,552.79 651.40,552.79 667.69,553.09 668.41,553.09 668.65,553.09 686.65,552.68 686.90,552.68 706.07,552.20 706.34,552.18 726.30,550.92 726.58,550.90 747.52,549.28 747.81,549.25 769.49,547.00 769.79,546.97 791.59,543.90 791.90,543.86 814.70,540.27 815.00,540.21 838.01,535.77 838.33,535.70 860.89,530.37 861.21,530.29 884.14,524.16 884.45,524.07 906.91,517.26 907.21,517.15 929.29,509.28 929.59,509.17 950.40,500.47 950.69,500.35 970.55,490.85 970.82,490.72 990.16,480.18 990.40,480.03 1007.90,469.04 1008.12,468.88 1023.97,457.18 1024.17,457.01 1038.26,444.47 1038.45,444.30 1050.26,431.38 1050.42,431.20 1060.12,417.84 1060.25,417.65 1067.83,403.96 1067.92,403.77 1073.44,389.64 1073.48,389.45 1076.70,375.38 1076.71,375.18 1077.62,361.08 1077.60,360.88 1076.09,346.68 1076.07,346.61 1072.15,332.69 1072.10,332.50 1065.96,319.03 1065.88,318.84 1057.76,305.77 1057.64,305.59 1047.67,292.78 1047.51,292.61 1036.07,280.51 1035.89,280.35 1022.61,268.72 1022.42,268.57 1007.73,257.88 1007.53,257.73 991.68,247.77 991.46,247.63 974.71,238.17 974.46,238.05 956.99,229.34 956.91,229.30 938.70,221.58 938.45,221.47 919.95,214.42 919.70,214.33 901.52,207.95 901.27,207.87 882.60,202.40 882.35,202.32 864.11,197.36 863.86,197.30 845.98,193.01 845.74,192.95 828.31,189.38 828.07,189.34 811.41,186.13 811.19,186.09 795.18,183.59 794.97,183.56 779.88,181.35 779.68,181.32 765.48,179.57 765.29,179.55 752.04,178.24 751.87,178.22 739.51,176.94 739.35,176.92 728.17,176.16 728.02,176.15 717.77,175.57 717.63,175.56 708.44,174.96 708.32,174.95 700.29,174.56 700.19,174.56 693.10,174.40 693.01,174.40 686.92,174.31 686.84,174.31 681.76,174.21 681.70,174.21 677.43,174.11 677.38,174.11 673.95,174.03 673.91,174.03 671.26,173.98 671.23,173.98 669.26,173.95 669.24,173.94 667.87,173.93 667.86,173.92 667.00,173.91 666.99,173.91 666.53,173.91 666.53,173.91 666.34,173.91 666.34,173.91 666.31,173.91 666.31,173.91 666.31,173.91 666.31,180.02 666.31,180.02 666.31,180.02 666.31,180.02 666.31,180.02 666.31,180.02 666.31,180.02 666.31,180.02 666.31,180.02 666.31,180.02 666.31,180.02 666.31,180.02 666.31,180.02 666.31,180.02 666.31,180.02 666.31,180.02 666.31,180.02 666.31,180.02 666.31,180.02 666.31,180.02 666.31,180.02 666.31,180.02 666.31,180.02 666.31,180.02 666.31,180.02 666.31,180.02 666.31,180.02 666.31,180.02 666.31,180.02 666.31,180.02 666.31,180.02 666.31,180.02 666.31,180.02 666.31,180.02 666.31,180.02 666.31,180.02 666.31,180.02 666.31,180.02 666.31,180.02 666.31,180.02 666.31,180.02 666.31,180.01 666.31,180.01 666.31,179.96 666.31,179.95 666.31,179.80 666.31,179.80 666.30,179.52 666.30,179.51 666.30,179.06 666.30,179.05 666.30,178.41 666.30,178.40 666.30,177.53 666.30,177.52 666.31,176.42 666.31,176.40 666.31,175.04 666.31,175.02 666.31,173.42 666.31,173.40 666.31,171.52 666.31,171.49 666.31,169.38 666.31,169.35 666.31,166.95 666.31,166.91 666.31,164.30 666.31,164.27 666.31,161.39 666.31,161.35 666.31,158.31 666.31,158.27 666.31,155.00 666.31,154.96 666.31,151.58 666.31,151.53 666.31,148.03 666.31,147.98 666.31,144.39 666.31,144.34 666.31,140.65 666.31,140.60 666.31,136.93 666.31,136.88 667.48,133.00 667.55,132.94 666.81,129.45 666.56,129.45 666.31,129.45 637.16,129.99 636.74,129.99 606.02,131.29 605.60,131.32 574.70,133.33 574.27,133.37 542.79,136.50 542.35,136.55 511.52,140.76 511.08,140.82 480.03,145.97 479.62,146.05 449.38,151.95 448.98,152.04 419.22,159.02 418.82,159.12 390.81,167.01 390.42,167.11 363.73,175.78 363.37,175.91 337.52,185.28 337.19,185.42 312.95,195.40 312.64,195.54 290.56,206.15 290.26,206.29 270.52,217.17 270.26,217.32 251.72,228.49 251.49,228.64 234.96,239.97 234.74,240.13 220.93,251.42 220.74,251.57 208.06,262.83 207.91,262.98 197.09,274.04 196.95,274.19 188.34,284.98 188.23,285.13 180.43,295.37 180.38,295.44 174.84,305.33 174.77,305.46 169.57,314.76 169.52,314.88 166.29,323.70 166.25,323.81 163.18,331.84 163.14,331.94 161.40,339.27 161.39,339.36 160.24,346.24 160.22,346.35 158.97,353.33 158.96,353.38 159.72,354.10 159.75,354.10 162.83,354.15 162.87,354.16 165.53,354.20 165.56,354.20 167.42,354.24 167.45,354.24 168.94,354.27 168.96,354.27 170.12,354.29 170.13,354.29 170.97,354.31 170.98,354.31 171.55,354.32 171.56,354.32 171.89,354.32 171.90,354.32 172.06,354.33 172.06,354.33 172.11,354.33 172.11,354.33 172.11,354.33 172.11,354.33 172.11,354.33 172.11,354.33 172.11,354.33 172.11,354.33 172.11,354.33 172.11,354.33 172.11,354.33 172.11,354.33 172.11,354.33 172.11,354.33 172.11,354.33 172.11,354.33" fill="none" stroke="#175d7a" stroke-width="2.4" stroke-linejoin="round" stroke-linecap="round"/>
<circle cx="172.11" cy="354.33" r="6" fill="#23875a"/>
<circle cx="172.11" cy="354.33" r="6" fill="#795ca8"/>
<circle cx="537.06" cy="589.85" r="6" fill="#2e7d32"/>
<text x="549.06" y="559.85" font-family="Arial,sans-serif" font-size="14" fill="#2e7d32">approach</text>
<circle cx="566.78" cy="537.80" r="6" fill="#c62828"/>
<text x="518.78" y="559.80" font-family="Arial,sans-serif" font-size="14" fill="#c62828">grasp</text>
<circle cx="566.78" cy="537.80" r="6" fill="#ef6c00"/>
<text x="524.78" y="495.80" font-family="Arial,sans-serif" font-size="14" fill="#ef6c00">lift</text>
<circle cx="566.78" cy="537.80" r="6" fill="#6a1b9a"/>
<text x="600.78" y="559.80" font-family="Arial,sans-serif" font-size="14" fill="#6a1b9a">transfer</text>
<circle cx="666.31" cy="180.02" r="6" fill="#ad1457"/>
<text x="618.31" y="158.02" font-family="Arial,sans-serif" font-size="14" fill="#ad1457">place</text>
<circle cx="666.31" cy="180.02" r="6" fill="#00838f"/>
<text x="680.31" y="204.02" font-family="Arial,sans-serif" font-size="14" fill="#00838f">retreat</text>
<circle cx="566.78" cy="537.80" r="6" fill="#be3d32"/>
<circle cx="666.31" cy="180.02" r="6" fill="#23875a"/>
<line x1="118" y1="635" x2="1215" y2="635" stroke="#526a75" stroke-width="2"/>
<line x1="118" y1="92" x2="118" y2="635" stroke="#526a75" stroke-width="2"/>
<text x="666.5" y="738" text-anchor="middle" font-family="Arial,sans-serif" font-size="18" fill="#304c59">X базы, м</text>
<text x="26" y="363.5" text-anchor="middle" transform="rotate(-90 26 363.5)" font-family="Arial,sans-serif" font-size="18" fill="#304c59">Y базы, м</text>
<line x1="118" y1="694" x2="150" y2="694" stroke="#175d7a" stroke-width="4"/>
<text x="158" y="699" font-family="Arial,sans-serif" font-size="15" fill="#304c59">TCP path</text>
<line x1="278" y1="694" x2="310" y2="694" stroke="#23875a" stroke-width="4"/>
<text x="318" y="699" font-family="Arial,sans-serif" font-size="15" fill="#304c59">start</text>
<line x1="401" y1="694" x2="433" y2="694" stroke="#795ca8" stroke-width="4"/>
<text x="441" y="699" font-family="Arial,sans-serif" font-size="15" fill="#304c59">end</text>
<line x1="520" y1="694" x2="552" y2="694" stroke="#be3d32" stroke-width="4"/>
<text x="560" y="699" font-family="Arial,sans-serif" font-size="15" fill="#304c59">target estimate</text>
<line x1="716" y1="694" x2="748" y2="694" stroke="#23875a" stroke-width="4"/>
<text x="756" y="699" font-family="Arial,sans-serif" font-size="15" fill="#304c59">slot GREEN:1</text>
</svg>